<svg width="101" height="156" viewBox="0 0 101 156" fill="none" xmlns="http://www.w3.org/2000/svg">
<path fill-rule="evenodd" clip-rule="evenodd" d="M26.2513 0.0021076C24.5957 -0.0606984 23.2518 1.28845 23.2518 2.94531L23.2518 74.6935C23.2518 76.3504 24.599 77.678 26.248 77.8387C41.6964 79.3441 53.7698 92.3678 53.7698 108.211C53.7698 124.055 41.6964 137.079 26.248 138.584C24.599 138.745 23.2518 140.073 23.2518 141.729L23.2518 152.442C23.2518 154.099 24.5999 155.448 26.2556 155.385C67.8026 153.806 101 119.627 101 77.6935C101 68.8363 99.5189 60.325 96.7909 52.3937C96.1686 50.5846 93.995 49.9274 92.2623 50.7385C89.1788 52.182 85.7375 52.9885 82.1079 52.9885C68.865 52.9885 58.1295 42.253 58.1295 29.0101C58.1295 23.7654 59.8133 18.9139 62.6699 14.9669C63.7901 13.419 63.5517 11.1644 61.8945 10.2133C51.3241 4.14706 39.1927 0.493026 26.2513 0.0021076Z" fill="#4ECDC4"/>
<ellipse cx="23.5" cy="109.02" rx="23.5" ry="23" fill="#4ECDC4"/>
<circle cx="80" cy="31.0203" r="16" fill="#4ECDC4"/>
</svg>
